<svg width="24" height="24" viewBox="0 0 24 24"
     xmlns="http://www.w3.org/2000/svg" aria-labelledby="title"
     fill="none">
  <title>Transformer Substation Icon</title>
  <g stroke="currentColor" stroke-width="1.5" stroke-linecap="round" stroke-linejoin="round">
    <!-- roof -->
    <path d="M4 9L12 4L20 9"/>
    <!-- body -->
    <rect x="3" y="9" width="18" height="12" rx="2"/>
    <!-- bushings on top -->
    <line x1="7" y1="6" x2="7" y2="9"/>
    <line x1="12" y1="5" x2="12" y2="9"/>
    <line x1="17" y1="6" x2="17" y2="9"/>
    <!-- transformer coils -->
    <path d="M6 16 q1 -2 2 0 q1 2 2 0 q1 -2 2 0"/>
    <path d="M12 16 q1 -2 2 0 q1 2 2 0 q1 -2 2 0"/>
    <!-- door -->
    <rect x="15.5" y="14" width="3" height="6" rx="0.5"/>
    <!-- lightning on door -->
    <path d="M17 15.6l-1.1 1.2h1l-.9 1.8"/>
  </g>
</svg>
